<svg width="19" height="20" viewBox="0 0 19 20" fill="none" xmlns="http://www.w3.org/2000/svg">
<path fill-rule="evenodd" clip-rule="evenodd" d="M7.69019 13.5301L6.5642 18.3171C6.55879 18.3395 6.54604 18.3594 6.52799 18.3737C6.50993 18.388 6.48761 18.3958 6.46459 18.396C6.44156 18.3961 6.41916 18.3885 6.40097 18.3744C6.38277 18.3603 6.36982 18.3405 6.36419 18.3181L5.16519 13.4811C4.99814 12.8077 4.67671 12.1824 4.22633 11.6546C3.77595 11.1268 3.20896 10.711 2.57019 10.4401L0.732195 9.66013C0.714156 9.65245 0.698774 9.63963 0.687963 9.62327C0.677151 9.60691 0.671387 9.58774 0.671387 9.56813C0.671387 9.54852 0.677151 9.52935 0.687963 9.51299C0.698774 9.49663 0.714156 9.48382 0.732195 9.47613L2.61619 8.69413C3.26743 8.424 3.84515 8.00296 4.30172 7.46571C4.75829 6.92847 5.08064 6.29041 5.2422 5.60413L6.37019 0.813131C6.37523 0.791038 6.38762 0.77131 6.40533 0.757179C6.42305 0.743048 6.44504 0.735352 6.4677 0.735352C6.49036 0.735352 6.51234 0.743048 6.53006 0.757179C6.54777 0.77131 6.56016 0.791038 6.5652 0.813131L7.6912 5.60313C7.85276 6.28941 8.17511 6.92747 8.63167 7.46471C9.08824 8.00196 9.66596 8.423 10.3172 8.69313L12.1922 9.47113C12.2109 9.47897 12.2269 9.49218 12.2382 9.50908C12.2494 9.52598 12.2554 9.54583 12.2554 9.56613C12.2554 9.58643 12.2494 9.60628 12.2382 9.62318C12.2269 9.64008 12.2109 9.65329 12.1922 9.66113L10.3172 10.4391C9.66596 10.7093 9.08824 11.1303 8.63167 11.6675C8.17511 12.2048 7.85276 12.8428 7.6912 13.5291L7.69019 13.5301Z" fill="white"/>
<path d="M5.78403 0.674898L4.65803 5.4649C4.51821 6.05859 4.23929 6.61055 3.84427 7.07529C3.44925 7.54003 2.94944 7.90424 2.38603 8.1379L0.502031 8.9189C0.374651 8.97175 0.265722 9.06106 0.188916 9.1756C0.112111 9.29015 0.0708519 9.42483 0.0703178 9.56274C0.0697836 9.70065 0.109998 9.83564 0.185914 9.95078C0.26183 10.0659 0.370064 10.1561 0.497031 10.2099L2.33503 10.9899C2.88835 11.2246 3.37944 11.5849 3.76944 12.0423C4.15944 12.4996 4.43764 13.0414 4.58203 13.6249L5.78103 18.4609C5.81884 18.6142 5.90713 18.7502 6.03169 18.8472C6.15625 18.9442 6.30983 18.9964 6.46768 18.9955C6.62554 18.9946 6.77849 18.9406 6.90191 18.8421C7.02532 18.7437 7.11202 18.6066 7.14803 18.4529L8.27403 13.6659C8.41372 13.072 8.69257 12.5199 9.08759 12.0549C9.48262 11.59 9.98251 11.2257 10.546 10.9919L12.42 10.2139C12.5482 10.1605 12.6577 10.0704 12.7347 9.95494C12.8117 9.83944 12.8528 9.70372 12.8528 9.5649C12.8528 9.42607 12.8117 9.29036 12.7347 9.17486C12.6577 9.05936 12.5482 8.96926 12.42 8.9159L10.546 8.1379C9.98251 7.90414 9.48262 7.53978 9.08759 7.07486C8.69257 6.60994 8.41372 6.05777 8.27403 5.4639L7.14703 0.674898C7.11098 0.521212 7.02404 0.384224 6.90033 0.286173C6.77661 0.188122 6.62339 0.134766 6.46553 0.134766C6.30767 0.134766 6.15445 0.188122 6.03074 0.286173C5.90702 0.384224 5.82008 0.521212 5.78403 0.674898ZM6.46403 3.0189L7.10603 5.7389L7.17403 5.9989C7.38584 6.72337 7.75739 7.39113 8.26134 7.95305C8.76529 8.51497 9.38881 8.95676 10.086 9.2459L10.854 9.5649L10.086 9.8839L9.84003 9.9939C9.15943 10.3198 8.56054 10.7942 8.0874 11.382C7.61427 11.9699 7.27892 12.6564 7.10603 13.3909L6.45003 16.1749L5.74703 13.3349L5.67703 13.0799C5.46105 12.3696 5.09183 11.7153 4.59542 11.1633C4.09901 10.6112 3.4875 10.1748 2.80403 9.8849L2.06203 9.5709L2.84603 9.2459C3.5851 8.93929 4.24072 8.46141 4.75884 7.85167C5.27695 7.24192 5.64274 6.51777 5.82603 5.7389L6.46503 3.0189H6.46403Z" fill="white"/>
<path fill-rule="evenodd" clip-rule="evenodd" d="M16.6148 17.8699L15.7748 19.8139C15.7551 19.8595 15.7217 19.8977 15.6792 19.9234C15.6367 19.949 15.5873 19.9607 15.5378 19.9569C15.4883 19.953 15.4413 19.9338 15.4033 19.9019C15.3652 19.8699 15.3382 19.827 15.3258 19.7789L14.8668 18.0029C14.8226 17.8323 14.7411 17.6737 14.6282 17.5385C14.5153 17.4032 14.3737 17.2948 14.2138 17.2209L12.8218 16.5779C12.7794 16.5581 12.7439 16.5263 12.7195 16.4864C12.6951 16.4465 12.683 16.4003 12.6847 16.3536C12.6864 16.3069 12.7019 16.2617 12.7291 16.2237C12.7563 16.1857 12.7941 16.1565 12.8378 16.1399L14.1218 15.6579C14.2965 15.5923 14.4533 15.4865 14.5796 15.3491C14.7059 15.2117 14.7981 15.0465 14.8488 14.8669L15.3138 13.2109C15.3271 13.1632 15.355 13.1209 15.3935 13.0899C15.432 13.0588 15.4793 13.0405 15.5287 13.0375C15.5781 13.0346 15.6272 13.0471 15.6691 13.0733C15.7111 13.0995 15.7438 13.1382 15.7628 13.1839L16.4988 14.9599C16.6268 15.2679 16.8788 15.5079 17.1918 15.6219L18.6348 16.1449C18.6787 16.1611 18.7168 16.1899 18.7444 16.2277C18.772 16.2655 18.7879 16.3105 18.79 16.3573C18.7921 16.404 18.7804 16.4503 18.7564 16.4905C18.7324 16.5306 18.697 16.5627 18.6548 16.5829L17.2008 17.2659C16.9382 17.3894 16.7298 17.6045 16.6148 17.8709V17.8699Z" fill="white"/>
<path d="M15.5951 13.082C15.6651 13.102 15.7221 13.152 15.7501 13.22L16.4861 14.996C16.6141 15.304 16.8661 15.545 17.1791 15.658L18.6221 16.181C18.666 16.1972 18.7041 16.226 18.7317 16.2638C18.7593 16.3015 18.7752 16.3466 18.7773 16.3933C18.7794 16.4401 18.7678 16.4864 18.7437 16.5265C18.7197 16.5667 18.6843 16.5988 18.6421 16.619L17.1881 17.302C16.9255 17.4254 16.7171 17.6406 16.6021 17.907L15.7621 19.85C15.7422 19.8952 15.7088 19.9331 15.6665 19.9584C15.6241 19.9838 15.5749 19.9953 15.5257 19.9915C15.4765 19.9876 15.4297 19.9686 15.3917 19.937C15.3538 19.9053 15.3267 19.8627 15.3141 19.815L14.8541 18.039C14.81 17.8685 14.7287 17.7099 14.616 17.5747C14.5032 17.4395 14.3619 17.331 14.2021 17.257L12.8091 16.614C12.7667 16.5942 12.7312 16.5623 12.7068 16.5225C12.6824 16.4826 12.6703 16.4364 12.672 16.3897C12.6737 16.343 12.6892 16.2978 12.7164 16.2598C12.7436 16.2218 12.7814 16.1926 12.8251 16.176L14.1091 15.694C14.2838 15.6284 14.4407 15.5226 14.5669 15.3852C14.6932 15.2478 14.7854 15.0826 14.8361 14.903L15.3021 13.247C15.3191 13.1863 15.3595 13.1348 15.4145 13.1039C15.4694 13.0729 15.5344 13.0651 15.5951 13.082ZM15.6481 15.54L15.5711 15.685C15.4146 15.9513 15.2032 16.1814 14.9511 16.36L14.8021 16.456L14.9541 16.551C15.2701 16.773 15.5221 17.074 15.6841 17.425L15.7071 17.484L15.7791 17.335C15.9691 16.987 16.2491 16.698 16.5911 16.498L16.6091 16.488L16.4761 16.418C16.1288 16.2126 15.8453 15.9149 15.6571 15.558L15.6471 15.54H15.6481Z" fill="white"/>
</svg>
