<svg width="38" height="38" viewBox="0 0 38 38" fill="none" xmlns="http://www.w3.org/2000/svg">
<g clip-path="url(#clip0_1576_5845)" filter="url(#filter0_dd_1576_5845)">
<path fill-rule="evenodd" clip-rule="evenodd" d="M19.0005 0.625C15.4396 0.626848 11.9954 1.88807 9.2838 4.18315C6.57222 6.47823 4.77009 9.65751 4.19964 13.1525C3.6292 16.6475 4.32762 20.2303 6.17005 23.2602C8.01248 26.2902 10.8788 28.5697 14.2564 29.6912C15.0015 29.8295 15.2822 29.3677 15.2822 28.975C15.2822 28.5823 15.2673 27.4438 15.2623 26.199C11.0895 27.1005 10.2077 24.4381 10.2077 24.4381C9.52712 22.7093 8.54351 22.2549 8.54351 22.2549C7.18236 21.3312 8.64536 21.3485 8.64536 21.3485C10.1531 21.4547 10.9454 22.8871 10.9454 22.8871C12.2817 25.1667 14.4551 24.5073 15.3095 24.122C15.4437 23.1563 15.8336 22.4994 16.2633 22.1264C12.93 21.751 9.42776 20.4717 9.42776 14.7568C9.4071 13.2746 9.96024 11.8413 10.9727 10.7534C10.8187 10.378 10.3046 8.86154 11.1193 6.80179C11.1193 6.80179 12.3786 6.40169 15.245 8.33055C17.7035 7.66203 20.2975 7.66203 22.7561 8.33055C25.62 6.40169 26.8768 6.80179 26.8768 6.80179C27.694 8.8566 27.1799 10.373 27.0259 10.7534C28.0416 11.8415 28.5959 13.2773 28.5733 14.7617C28.5733 20.489 25.0636 21.751 21.7253 22.119C22.2618 22.5833 22.7412 23.4897 22.7412 24.8827C22.7412 26.8782 22.7238 28.4835 22.7238 28.975C22.7238 29.3726 22.9946 29.8369 23.7546 29.6912C27.1326 28.5696 29.9992 26.2896 31.8416 23.2592C33.684 20.2287 34.3821 16.6454 33.811 13.1501C33.2399 9.65475 31.4368 6.47544 28.7244 4.18076C26.0119 1.88607 22.5669 0.625676 19.0055 0.625H19.0005Z" fill="black"/>
<path d="M9.68045 22.0398C9.64816 22.1139 9.52894 22.1361 9.43207 22.0842C9.3352 22.0324 9.26317 21.9361 9.29795 21.8595C9.33272 21.7829 9.44946 21.7632 9.54633 21.815C9.6432 21.8669 9.71771 21.9657 9.68045 22.0398Z" fill="black"/>
<path d="M10.289 22.7139C10.2376 22.7397 10.1787 22.7469 10.1226 22.7343C10.0664 22.7217 10.0164 22.69 9.98104 22.6448C9.88417 22.541 9.86429 22.3978 9.9388 22.3336C10.0133 22.2694 10.1475 22.299 10.2443 22.4027C10.3412 22.5065 10.3636 22.6497 10.289 22.7139Z" fill="black"/>
<path d="M10.8801 23.5717C10.7882 23.6359 10.6317 23.5717 10.5448 23.4433C10.5207 23.4203 10.5016 23.3926 10.4885 23.3621C10.4755 23.3315 10.4688 23.2987 10.4688 23.2655C10.4688 23.2323 10.4755 23.1994 10.4885 23.1689C10.5016 23.1383 10.5207 23.1107 10.5448 23.0877C10.6367 23.0259 10.7932 23.0877 10.8801 23.2136C10.967 23.3396 10.9695 23.5075 10.8801 23.5717Z" fill="black"/>
<path d="M11.6825 24.4006C11.6006 24.4919 11.4341 24.4673 11.2975 24.3438C11.1609 24.2203 11.1286 24.0523 11.2106 23.9634C11.2926 23.8745 11.459 23.8992 11.6006 24.0202C11.7421 24.1412 11.7695 24.3117 11.6825 24.4006Z" fill="black"/>
<path d="M12.8077 24.885C12.7705 25.0011 12.6016 25.0529 12.4327 25.0035C12.2638 24.9541 12.152 24.8158 12.1843 24.6973C12.2166 24.5787 12.3879 24.5244 12.5593 24.5787C12.7307 24.6331 12.84 24.764 12.8077 24.885Z" fill="black"/>
<path d="M14.0349 24.9693C14.0349 25.0904 13.8958 25.1941 13.717 25.1966C13.5381 25.199 13.3916 25.1002 13.3916 24.9792C13.3916 24.8582 13.5307 24.7545 13.7095 24.752C13.8884 24.7495 14.0349 24.8459 14.0349 24.9693Z" fill="black"/>
<path d="M15.1775 24.7789C15.1998 24.8999 15.0757 25.0259 14.8968 25.0555C14.718 25.0851 14.5615 25.0135 14.5391 24.895C14.5168 24.7764 14.6459 24.648 14.8198 24.6159C14.9937 24.5838 15.1551 24.6579 15.1775 24.7789Z" fill="black"/>
</g>
<defs>
<filter id="filter0_dd_1576_5845" x="0" y="0" width="38" height="38" filterUnits="userSpaceOnUse" color-interpolation-filters="sRGB">
<feFlood flood-opacity="0" result="BackgroundImageFix"/>
<feColorMatrix in="SourceAlpha" type="matrix" values="0 0 0 0 0 0 0 0 0 0 0 0 0 0 0 0 0 0 127 0" result="hardAlpha"/>
<feOffset dy="4"/>
<feGaussianBlur stdDeviation="2"/>
<feComposite in2="hardAlpha" operator="out"/>
<feColorMatrix type="matrix" values="0 0 0 0 0 0 0 0 0 0 0 0 0 0 0 0 0 0 0.25 0"/>
<feBlend mode="normal" in2="BackgroundImageFix" result="effect1_dropShadow_1576_5845"/>
<feColorMatrix in="SourceAlpha" type="matrix" values="0 0 0 0 0 0 0 0 0 0 0 0 0 0 0 0 0 0 127 0" result="hardAlpha"/>
<feOffset dy="4"/>
<feGaussianBlur stdDeviation="2"/>
<feComposite in2="hardAlpha" operator="out"/>
<feColorMatrix type="matrix" values="0 0 0 0 0 0 0 0 0 0 0 0 0 0 0 0 0 0 0.25 0"/>
<feBlend mode="normal" in2="effect1_dropShadow_1576_5845" result="effect2_dropShadow_1576_5845"/>
<feBlend mode="normal" in="SourceGraphic" in2="effect2_dropShadow_1576_5845" result="shape"/>
</filter>
<clipPath id="clip0_1576_5845">
<rect width="30" height="30" fill="white" transform="translate(4)"/>
</clipPath>
</defs>
</svg>
